<!DOCTYPE svg PUBLIC "-//W3C//DTD SVG 20010904//EN" "http://www.w3.org/TR/2001/REC-SVG-20010904/DTD/svg10.dtd">
<svg version="1.0" xmlns="http://www.w3.org/2000/svg" width="200px" height="200px" viewBox="0 0 2000 2000" preserveAspectRatio="xMidYMid meet">
<g id="layer101" fill="#222222" stroke="none">
 <path d="M950 1400 l0 -220 50 0 c37 0 50 4 50 14 0 13 4 13 35 0 19 -7 59 -14 90 -14 46 0 60 4 80 25 24 23 25 30 25 140 0 110 -1 117 -25 140 -22 23 -32 25 -110 25 l-85 0 0 55 0 55 -55 0 -55 0 0 -220z m220 -49 c0 -39 -4 -72 -9 -75 -5 -3 -30 -3 -55 0 l-46 7 0 68 0 69 55 0 55 0 0 -69z"/>
 <path d="M1430 1555 c0 -3 36 -60 81 -126 l80 -120 -32 -52 c-18 -29 -55 -84 -81 -124 -26 -40 -48 -75 -48 -78 0 -3 34 -5 75 -5 l76 0 37 59 c20 33 42 68 48 77 9 15 17 7 55 -57 l45 -74 78 -3 c62 -2 77 0 73 10 -2 8 -39 66 -80 130 l-75 116 84 126 85 127 -82 -3 -83 -3 -44 -72 -45 -73 -46 75 -46 74 -77 1 c-43 0 -78 -2 -78 -5z"/>
 <path d="M218 1513 l-48 -4 0 -46 0 -45 123 3 122 4 3 -37 3 -36 -100 -4 c-94 -3 -102 -5 -128 -30 -35 -35 -44 -126 -18 -181 23 -48 54 -57 201 -57 l124 0 0 45 0 45 -99 0 c-107 0 -125 8 -119 52 3 22 8 23 98 28 52 3 105 11 116 17 33 19 47 65 42 138 -6 100 -20 110 -161 111 -61 1 -133 -1 -159 -3z"/>
 <path d="M606 1495 c-25 -23 -26 -27 -26 -145 0 -115 1 -122 25 -145 23 -24 31 -25 132 -25 146 1 163 15 163 144 l0 76 -105 0 c-89 0 -105 2 -105 16 0 14 14 15 100 12 l100 -3 0 41 0 41 -67 6 c-138 13 -188 9 -217 -18z m184 -199 c0 -23 -27 -38 -62 -34 -25 2 -34 8 -36 26 -3 20 0 22 47 22 37 0 51 -4 51 -14z"/>
 <path d="M1253 803 l-43 -4 0 -43 0 -43 97 1 c84 1 98 -1 101 -16 3 -15 -4 -16 -65 -11 -125 10 -161 -34 -150 -183 9 -123 26 -134 207 -134 l130 0 0 168 c0 257 -9 273 -150 270 -47 -1 -104 -3 -127 -5z m141 -209 c12 -5 16 -21 16 -71 l0 -64 -47 3 -48 3 -3 54 c-2 29 -1 60 2 67 6 14 52 19 80 8z"/>
 <path d="M253 703 l-83 -4 0 -44 0 -45 125 0 125 0 0 -35 0 -35 -72 0 c-132 0 -177 -25 -185 -104 -7 -63 4 -114 32 -142 23 -23 30 -24 165 -24 l140 0 0 45 0 44 -107 3 c-104 3 -108 4 -111 26 -6 43 13 52 109 52 78 0 91 3 115 24 24 20 28 32 32 90 5 74 -7 115 -41 135 -24 15 -113 20 -244 14z"/>
 <path d="M653 695 c-45 -19 -53 -42 -53 -144 0 -84 -1 -91 -20 -91 -17 0 -20 -7 -20 -45 0 -38 3 -45 20 -45 14 0 21 -9 26 -35 6 -34 7 -35 55 -35 l49 0 0 35 c0 34 1 35 40 35 l40 0 0 45 0 45 -40 0 -41 0 3 73 3 72 48 3 47 3 0 43 c0 42 -1 44 -37 50 -56 9 -84 7 -120 -9z"/>
 <path d="M874 696 c-60 -27 -71 -144 -17 -186 21 -16 41 -20 105 -20 70 0 79 -2 76 -17 -3 -16 -15 -18 -96 -15 l-92 3 0 -40 c0 -49 2 -50 142 -53 101 -3 108 -1 132 21 26 24 26 27 26 168 l0 143 -50 0 c-37 0 -50 -4 -50 -14 0 -13 -4 -13 -29 0 -43 22 -111 26 -147 10z m164 -109 c3 -16 -3 -18 -45 -15 -37 2 -49 7 -51 21 -3 16 3 18 45 15 37 -2 49 -7 51 -21z"/>
 <path d="M1624 696 c-44 -20 -57 -65 -52 -182 4 -87 6 -97 31 -122 26 -26 32 -27 132 -27 100 0 106 1 131 27 24 23 28 36 32 107 l5 81 -107 0 c-102 0 -106 1 -106 22 0 21 2 21 100 14 l100 -6 0 40 c0 24 -5 42 -12 45 -7 2 -60 6 -118 9 -78 4 -113 2 -136 -8z m156 -221 c0 -23 -4 -25 -45 -25 -41 0 -45 2 -45 25 0 23 4 25 45 25 41 0 45 -2 45 -25z"/>
 </g>
<g id="layer102" fill="#dd4422" stroke="none">
 <path d="M1430 1555 c0 -3 36 -60 81 -126 l80 -120 -32 -52 c-18 -29 -55 -84 -81 -124 -26 -40 -48 -75 -48 -78 0 -3 34 -5 75 -5 l76 0 37 59 c20 33 42 68 48 77 9 15 17 7 55 -57 l45 -74 78 -3 c62 -2 77 0 73 10 -2 8 -39 66 -80 130 l-75 116 84 126 85 127 -82 -3 -83 -3 -44 -72 -45 -73 -46 75 -46 74 -77 1 c-43 0 -78 -2 -78 -5z"/>
 </g>

</svg>