<svg id="SvgjsSvg1006" width="950" height="620" xmlns="http://www.w3.org/2000/svg" version="1.1" xmlns:xlink="http://www.w3.org/1999/xlink" xmlns:svgjs="http://svgjs.com/svgjs"><defs id="SvgjsDefs1007"><marker id="SvgjsMarker1034" markerWidth="16" markerHeight="12" refX="16" refY="6" viewBox="0 0 16 12" orient="auto" markerUnits="userSpaceOnUse"><path id="SvgjsPath1035" d="M0,2 L14,6 L0,11 L0,2" fill="#323232" stroke="#323232" stroke-width="2"></path></marker><marker id="SvgjsMarker1046" markerWidth="16" markerHeight="12" refX="16" refY="6" viewBox="0 0 16 12" orient="auto" markerUnits="userSpaceOnUse"><path id="SvgjsPath1047" d="M0,2 L14,6 L0,11 L0,2" fill="#323232" stroke="#323232" stroke-width="2"></path></marker><marker id="SvgjsMarker1058" markerWidth="16" markerHeight="12" refX="16" refY="6" viewBox="0 0 16 12" orient="auto" markerUnits="userSpaceOnUse"><path id="SvgjsPath1059" d="M0,2 L14,6 L0,11 L0,2" fill="#323232" stroke="#323232" stroke-width="2"></path></marker><marker id="SvgjsMarker1070" markerWidth="16" markerHeight="12" refX="16" refY="6" viewBox="0 0 16 12" orient="auto" markerUnits="userSpaceOnUse"><path id="SvgjsPath1071" d="M0,2 L14,6 L0,11 L0,2" fill="#323232" stroke="#323232" stroke-width="2"></path></marker><marker id="SvgjsMarker1088" markerWidth="16" markerHeight="12" refX="16" refY="6" viewBox="0 0 16 12" orient="auto" markerUnits="userSpaceOnUse"><path id="SvgjsPath1089" d="M0,2 L14,6 L0,11 L0,2" fill="#323232" stroke="#323232" stroke-width="2"></path></marker><marker id="SvgjsMarker1098" markerWidth="16" markerHeight="12" refX="16" refY="6" viewBox="0 0 16 12" orient="auto" markerUnits="userSpaceOnUse"><path id="SvgjsPath1099" d="M0,2 L14,6 L0,11 L0,2" fill="#323232" stroke="#323232" stroke-width="2"></path></marker><marker id="SvgjsMarker1108" markerWidth="16" markerHeight="12" refX="16" refY="6" viewBox="0 0 16 12" orient="auto" markerUnits="userSpaceOnUse"><path id="SvgjsPath1109" d="M0,2 L14,6 L0,11 L0,2" fill="#323232" stroke="#323232" stroke-width="2"></path></marker><marker id="SvgjsMarker1112" markerWidth="16" markerHeight="12" refX="16" refY="6" viewBox="0 0 16 12" orient="auto" markerUnits="userSpaceOnUse"><path id="SvgjsPath1113" d="M0,2 L14,6 L0,11 L0,2" fill="#323232" stroke="#323232" stroke-width="2"></path></marker><marker id="SvgjsMarker1136" markerWidth="16" markerHeight="12" refX="16" refY="6" viewBox="0 0 16 12" orient="auto" markerUnits="userSpaceOnUse"><path id="SvgjsPath1137" d="M0,2 L14,6 L0,11 L0,2" fill="#323232" stroke="#323232" stroke-width="2"></path></marker><marker id="SvgjsMarker1158" markerWidth="16" markerHeight="12" refX="16" refY="6" viewBox="0 0 16 12" orient="auto" markerUnits="userSpaceOnUse"><path id="SvgjsPath1159" d="M0,2 L14,6 L0,11 L0,2" fill="#323232" stroke="#323232" stroke-width="2"></path></marker><marker id="SvgjsMarker1162" markerWidth="16" markerHeight="12" refX="16" refY="6" viewBox="0 0 16 12" orient="auto" markerUnits="userSpaceOnUse"><path id="SvgjsPath1163" d="M0,2 L14,6 L0,11 L0,2" fill="#323232" stroke="#323232" stroke-width="2"></path></marker><marker id="SvgjsMarker1172" markerWidth="16" markerHeight="12" refX="16" refY="6" viewBox="0 0 16 12" orient="auto" markerUnits="userSpaceOnUse"><path id="SvgjsPath1173" d="M0,2 L14,6 L0,11 L0,2" fill="#323232" stroke="#323232" stroke-width="2"></path></marker><marker id="SvgjsMarker1182" markerWidth="16" markerHeight="12" refX="16" refY="6" viewBox="0 0 16 12" orient="auto" markerUnits="userSpaceOnUse"><path id="SvgjsPath1183" d="M0,2 L14,6 L0,11 L0,2" fill="#323232" stroke="#323232" stroke-width="2"></path></marker></defs><g id="SvgjsG1008" transform="translate(56,119)"><path id="SvgjsPath1009" d="M 0 4Q 0 0 4 0L 865 0Q 869 0 869 4L 869 364Q 869 368 865 368L 4 368Q 0 368 0 364Z" stroke-dasharray="10,6" stroke="#323232" stroke-width="2" fill-opacity="1" fill="#ffffff"></path><g id="SvgjsG1010"><text id="SvgjsText1011" font-family="微软雅黑" text-anchor="middle" font-size="13px" width="0" fill="#323232" font-weight="400" align="middle" anchor="middle" family="微软雅黑" size="13px" weight="400" font-style="" y="174.05" transform="rotate(0)"></text></g></g><g id="SvgjsG1012" transform="translate(112,186)"><path id="SvgjsPath1013" d="M 0 4Q 0 0 4 0L 753 0Q 757 0 757 4L 757 113Q 757 117 753 117L 4 117Q 0 117 0 113Z" stroke-dasharray="10,6" stroke="#323232" stroke-width="2" fill-opacity="1" fill="#ffffff"></path><g id="SvgjsG1014"><text id="SvgjsText1015" font-family="微软雅黑" text-anchor="middle" font-size="13px" width="0" fill="#323232" font-weight="400" align="middle" anchor="middle" family="微软雅黑" size="13px" weight="400" font-style="" y="48.55" transform="rotate(0)"></text></g></g><g id="SvgjsG1016" transform="translate(112,336)"><path id="SvgjsPath1017" d="M 0 4Q 0 0 4 0L 377 0Q 381 0 381 4L 381 105Q 381 109 377 109L 4 109Q 0 109 0 105Z" stroke-dasharray="10,6" stroke="#323232" stroke-width="2" fill-opacity="1" fill="#ffffff"></path><g id="SvgjsG1018"><text id="SvgjsText1019" font-family="微软雅黑" text-anchor="middle" font-size="13px" width="0" fill="#323232" font-weight="400" align="middle" anchor="middle" family="微软雅黑" size="13px" weight="400" font-style="" y="44.55" transform="rotate(0)"></text></g></g><g id="SvgjsG1020" transform="translate(248,215)"><path id="SvgjsPath1021" d="M 0 4Q 0 0 4 0L 105 0Q 109 0 109 4L 109 55Q 109 59 105 59L 4 59Q 0 59 0 55Z" stroke="#323232" stroke-width="2" fill-opacity="1" fill="#ffffff"></path><g id="SvgjsG1022"><text id="SvgjsText1023" font-family="微软雅黑" text-anchor="middle" font-size="13px" width="36" fill="#323232" font-weight="400" align="middle" anchor="middle" family="微软雅黑" size="13px" weight="400" font-style="" y="19.55" transform="rotate(0)"><tspan id="SvgjsTspan1024" dy="16" x="54.5"><tspan id="SvgjsTspan1025" style="text-decoration:;">cutter </tspan></tspan></text></g></g><g id="SvgjsG1026" transform="translate(248,25)"><path id="SvgjsPath1027" d="M 0 4Q 0 0 4 0L 105 0Q 109 0 109 4L 109 55Q 109 59 105 59L 4 59Q 0 59 0 55Z" stroke="#323232" stroke-width="2" fill-opacity="1" fill="#ffffff"></path><g id="SvgjsG1028"><text id="SvgjsText1029" font-family="微软雅黑" text-anchor="middle" font-size="13px" width="32" fill="#323232" font-weight="400" align="middle" anchor="middle" family="微软雅黑" size="13px" weight="400" font-style="" y="19.55" transform="rotate(0)"><tspan id="SvgjsTspan1030" dy="16" x="54.5"><tspan id="SvgjsTspan1031" style="text-decoration:;">video</tspan></tspan></text></g></g><g id="SvgjsG1032"><path id="SvgjsPath1033" d="M302.5 84L302.5 149.5L302.5 149.5L302.5 215" stroke="#323232" stroke-width="2" fill="none" marker-end="url(#SvgjsMarker1034)"></path></g><g id="SvgjsG1036" transform="translate(128,366)"><path id="SvgjsPath1037" d="M 0 4Q 0 0 4 0L 105 0Q 109 0 109 4L 109 55Q 109 59 105 59L 4 59Q 0 59 0 55Z" stroke="#323232" stroke-width="2" fill-opacity="1" fill="#ffffff"></path><g id="SvgjsG1038"><text id="SvgjsText1039" font-family="微软雅黑" text-anchor="middle" font-size="13px" width="47" fill="#323232" font-weight="400" align="middle" anchor="middle" family="微软雅黑" size="13px" weight="400" font-style="" y="11.55" transform="rotate(0)"><tspan id="SvgjsTspan1040" dy="16" x="54.5"><tspan id="SvgjsTspan1041" style="text-decoration:;">images</tspan></tspan><tspan id="SvgjsTspan1042" dy="16" x="54.5"><tspan id="SvgjsTspan1043" style="text-decoration:;">(stage1)</tspan></tspan></text></g></g><g id="SvgjsG1044"><path id="SvgjsPath1045" d="M302.5 274L302.5 320L182.5 320L182.5 366" stroke="#323232" stroke-width="2" fill="none" marker-end="url(#SvgjsMarker1046)"></path></g><g id="SvgjsG1048" transform="translate(248,366)"><path id="SvgjsPath1049" d="M 0 4Q 0 0 4 0L 105 0Q 109 0 109 4L 109 55Q 109 59 105 59L 4 59Q 0 59 0 55Z" stroke="#323232" stroke-width="2" fill-opacity="1" fill="#ffffff"></path><g id="SvgjsG1050"><text id="SvgjsText1051" font-family="微软雅黑" text-anchor="middle" font-size="13px" width="50" fill="#323232" font-weight="400" align="middle" anchor="middle" family="微软雅黑" size="13px" weight="400" font-style="" y="11.55" transform="rotate(0)"><tspan id="SvgjsTspan1052" dy="16" x="54.5"><tspan id="SvgjsTspan1053" style="text-decoration:;">images</tspan></tspan><tspan id="SvgjsTspan1054" dy="16" x="54.5"><tspan id="SvgjsTspan1055" style="text-decoration:;">(stage2)</tspan></tspan></text></g></g><g id="SvgjsG1056"><path id="SvgjsPath1057" d="M302.5 274L302.5 320L302.5 320L302.5 366" stroke="#323232" stroke-width="2" fill="none" marker-end="url(#SvgjsMarker1058)"></path></g><g id="SvgjsG1060" transform="translate(371,366)"><path id="SvgjsPath1061" d="M 0 4Q 0 0 4 0L 105 0Q 109 0 109 4L 109 55Q 109 59 105 59L 4 59Q 0 59 0 55Z" stroke="#323232" stroke-width="2" fill-opacity="1" fill="#ffffff"></path><g id="SvgjsG1062"><text id="SvgjsText1063" font-family="微软雅黑" text-anchor="middle" font-size="13px" width="51" fill="#323232" font-weight="400" align="middle" anchor="middle" family="微软雅黑" size="13px" weight="400" font-style="" y="11.55" transform="rotate(0)"><tspan id="SvgjsTspan1064" dy="16" x="54.5"><tspan id="SvgjsTspan1065" style="text-decoration:;">images</tspan></tspan><tspan id="SvgjsTspan1066" dy="16" x="54.5"><tspan id="SvgjsTspan1067" style="text-decoration:;">(stageN)</tspan></tspan></text></g></g><g id="SvgjsG1068"><path id="SvgjsPath1069" d="M302.5 274L302.5 320L425.5 320L425.5 366" stroke="#323232" stroke-width="2" fill="none" marker-end="url(#SvgjsMarker1070)"></path></g><g id="SvgjsG1072" transform="translate(545,215)"><path id="SvgjsPath1073" d="M 0 4Q 0 0 4 0L 105 0Q 109 0 109 4L 109 55Q 109 59 105 59L 4 59Q 0 59 0 55Z" stroke="#323232" stroke-width="2" fill-opacity="1" fill="#ffffff"></path><g id="SvgjsG1074"><text id="SvgjsText1075" font-family="微软雅黑" text-anchor="middle" font-size="13px" width="54" fill="#323232" font-weight="400" align="middle" anchor="middle" family="微软雅黑" size="13px" weight="400" font-style="" y="19.55" transform="rotate(0)"><tspan id="SvgjsTspan1076" dy="16" x="54.5"><tspan id="SvgjsTspan1077" style="text-decoration:;">classifier</tspan></tspan></text></g></g><g id="SvgjsG1078" transform="translate(545,366)"><path id="SvgjsPath1079" d="M 0 4Q 0 0 4 0L 105 0Q 109 0 109 4L 109 55Q 109 59 105 59L 4 59Q 0 59 0 55Z" stroke="#323232" stroke-width="2" fill-opacity="1" fill="#ffffff"></path><g id="SvgjsG1080"><text id="SvgjsText1081" font-family="微软雅黑" text-anchor="middle" font-size="13px" width="80" fill="#323232" font-weight="400" align="middle" anchor="middle" family="微软雅黑" size="13px" weight="400" font-style="" y="3.55" transform="rotate(0)"><tspan id="SvgjsTspan1082" dy="16" x="54.5"><tspan id="SvgjsTspan1083" style="text-decoration:;">classifier</tspan></tspan><tspan id="SvgjsTspan1084" dy="16" x="54.5"><tspan id="SvgjsTspan1085" style="text-decoration:;">result(object)</tspan></tspan></text></g></g><g id="SvgjsG1086"><path id="SvgjsPath1087" d="M599.5 274L599.5 320L599.5 320L599.5 366" stroke="#323232" stroke-width="2" fill="none" marker-end="url(#SvgjsMarker1088)"></path></g><g id="SvgjsG1090" transform="translate(732,215)"><path id="SvgjsPath1091" d="M 0 4Q 0 0 4 0L 105 0Q 109 0 109 4L 109 55Q 109 59 105 59L 4 59Q 0 59 0 55Z" stroke="#323232" stroke-width="2" fill-opacity="1" fill="#ffffff"></path><g id="SvgjsG1092"><text id="SvgjsText1093" font-family="微软雅黑" text-anchor="middle" font-size="13px" width="49" fill="#323232" font-weight="400" align="middle" anchor="middle" family="微软雅黑" size="13px" weight="400" font-style="" y="19.55" transform="rotate(0)"><tspan id="SvgjsTspan1094" dy="16" x="54.5"><tspan id="SvgjsTspan1095" style="text-decoration:;">reporter</tspan></tspan></text></g></g><g id="SvgjsG1096"><path id="SvgjsPath1097" d="M654 395.5L684 395.5L684 138L786.5 138L786.5 215" stroke="#323232" stroke-width="2" fill="none" marker-end="url(#SvgjsMarker1098)"></path></g><g id="SvgjsG1100" transform="translate(732,366)"><path id="SvgjsPath1101" d="M 0 4Q 0 0 4 0L 105 0Q 109 0 109 4L 109 55Q 109 59 105 59L 4 59Q 0 59 0 55Z" stroke="#323232" stroke-width="2" fill-opacity="1" fill="#ffffff"></path><g id="SvgjsG1102"><text id="SvgjsText1103" font-family="微软雅黑" text-anchor="middle" font-size="13px" width="67" fill="#323232" font-weight="400" align="middle" anchor="middle" family="微软雅黑" size="13px" weight="400" font-style="" y="19.55" transform="rotate(0)"><tspan id="SvgjsTspan1104" dy="16" x="54.5"><tspan id="SvgjsTspan1105" style="text-decoration:;">html report</tspan></tspan></text></g></g><g id="SvgjsG1106"><path id="SvgjsPath1107" d="M786.5 274L786.5 320L786.5 320L786.5 366" stroke="#323232" stroke-width="2" fill="none" marker-end="url(#SvgjsMarker1108)"></path></g><g id="SvgjsG1110"><path id="SvgjsPath1111" d="M493 390.5L519 390.5L519 139L599.5 139L599.5 215" stroke="#323232" stroke-width="2" fill="none" marker-end="url(#SvgjsMarker1112)"></path></g><g id="SvgjsG1114" transform="translate(161,445)"><path id="SvgjsPath1115" d="M 0 0L 160 0L 160 40L 0 40Z" stroke="none" fill="none"></path><g id="SvgjsG1116"><text id="SvgjsText1117" font-family="微软雅黑" text-anchor="middle" font-size="13px" width="94" fill="#323232" font-weight="400" align="middle" anchor="middle" family="微软雅黑" size="13px" weight="400" font-style="" y="10.05" transform="rotate(0)"><tspan id="SvgjsTspan1118" dy="16" x="80"><tspan id="SvgjsTspan1119" style="text-decoration:;">image directory</tspan></tspan></text></g></g><g id="SvgjsG1120" transform="translate(69,224.5)"><path id="SvgjsPath1121" d="M 0 0L 160 0L 160 40L 0 40Z" stroke="none" fill="none"></path><g id="SvgjsG1122"><text id="SvgjsText1123" font-family="微软雅黑" text-anchor="middle" font-size="13px" width="50" fill="#323232" font-weight="400" align="middle" anchor="middle" family="微软雅黑" size="13px" weight="400" font-style="" y="10.05" transform="rotate(0)"><tspan id="SvgjsTspan1124" dy="16" x="80"><tspan id="SvgjsTspan1125" style="text-decoration:;">modules</tspan></tspan></text></g></g><g id="SvgjsG1126" transform="translate(252.5,525)"><path id="SvgjsPath1127" d="M 0 4Q 0 0 4 0L 96 0Q 100 0 100 4L 100 66Q 100 70 96 70L 4 70Q 0 70 0 66Z" stroke="#323232" stroke-width="2" fill-opacity="1" fill="#ffffff"></path><g id="SvgjsG1128"><text id="SvgjsText1129" font-family="微软雅黑" text-anchor="middle" font-size="13px" width="54" fill="#323232" font-weight="400" align="middle" anchor="middle" family="微软雅黑" size="13px" weight="400" font-style="" y="9.05" transform="rotate(0)"><tspan id="SvgjsTspan1130" dy="16" x="50"><tspan id="SvgjsTspan1131" style="text-decoration:;">formodel </tspan></tspan><tspan id="SvgjsTspan1132" dy="16" x="50"><tspan id="SvgjsTspan1133" style="text-decoration:;">trainning</tspan></tspan></text></g></g><g id="SvgjsG1134"><path id="SvgjsPath1135" d="M302.5 445L302.5 485L302.5 485L302.5 525" stroke-dasharray="8,5" stroke="#323232" stroke-width="2" fill="none" marker-end="url(#SvgjsMarker1136)"></path></g><g id="SvgjsG1138" transform="translate(549.5,525)"><path id="SvgjsPath1139" d="M 0 4Q 0 0 4 0L 96 0Q 100 0 100 4L 100 66Q 100 70 96 70L 4 70Q 0 70 0 66Z" stroke="#323232" stroke-width="2" fill-opacity="1" fill="#ffffff"></path><g id="SvgjsG1140"><text id="SvgjsText1141" font-family="微软雅黑" text-anchor="middle" font-size="13px" width="58" fill="#323232" font-weight="400" align="middle" anchor="middle" family="微软雅黑" size="13px" weight="400" font-style="" y="9.05" transform="rotate(0)"><tspan id="SvgjsTspan1142" dy="16" x="50"><tspan id="SvgjsTspan1143" style="text-decoration:;">work with </tspan></tspan><tspan id="SvgjsTspan1144" dy="16" x="50"><tspan id="SvgjsTspan1145" style="text-decoration:;">other </tspan></tspan><tspan id="SvgjsTspan1146" dy="16" x="50"><tspan id="SvgjsTspan1147" style="text-decoration:;">programs</tspan></tspan></text></g></g><g id="SvgjsG1148" transform="translate(545,25)"><path id="SvgjsPath1149" d="M 0 4Q 0 0 4 0L 105 0Q 109 0 109 4L 109 55Q 109 59 105 59L 4 59Q 0 59 0 55Z" stroke="#323232" stroke-width="2" fill-opacity="1" fill="#ffffff"></path><g id="SvgjsG1150"><text id="SvgjsText1151" font-family="微软雅黑" text-anchor="middle" font-size="13px" width="81" fill="#323232" font-weight="400" align="middle" anchor="middle" family="微软雅黑" size="13px" weight="400" font-style="" y="11.55" transform="rotate(0)"><tspan id="SvgjsTspan1152" dy="16" x="54.5"><tspan id="SvgjsTspan1153" style="text-decoration:;">other dataset</tspan></tspan><tspan id="SvgjsTspan1154" dy="16" x="54.5"><tspan id="SvgjsTspan1155" style="text-decoration:;">(optional)</tspan></tspan></text></g></g><g id="SvgjsG1156"><path id="SvgjsPath1157" d="M599.5 84L599.5 149.5L599.5 149.5L599.5 215" stroke="#323232" stroke-width="2" fill="none" marker-end="url(#SvgjsMarker1158)"></path></g><g id="SvgjsG1160"><path id="SvgjsPath1161" d="M599.5 425L599.5 475L599.5 475L599.5 525" stroke-dasharray="8,5" stroke="#323232" stroke-width="2" fill="none" marker-end="url(#SvgjsMarker1162)"></path></g><g id="SvgjsG1164" transform="translate(736.5,525)"><path id="SvgjsPath1165" d="M 0 4Q 0 0 4 0L 96 0Q 100 0 100 4L 100 66Q 100 70 96 70L 4 70Q 0 70 0 66Z" stroke="#323232" stroke-width="2" fill-opacity="1" fill="#ffffff"></path><g id="SvgjsG1166"><text id="SvgjsText1167" font-family="微软雅黑" text-anchor="middle" font-size="13px" width="57" fill="#323232" font-weight="400" align="middle" anchor="middle" family="微软雅黑" size="13px" weight="400" font-style="" y="17.05" transform="rotate(0)"><tspan id="SvgjsTspan1168" dy="16" x="50"><tspan id="SvgjsTspan1169" style="text-decoration:;">forhuman</tspan></tspan></text></g></g><g id="SvgjsG1170"><path id="SvgjsPath1171" d="M786.5 425L786.5 475L786.5 475L786.5 525" stroke-dasharray="8,5" stroke="#323232" stroke-width="2" fill="none" marker-end="url(#SvgjsMarker1172)"></path></g><g id="SvgjsG1174" transform="translate(25,119)"><path id="SvgjsPath1175" d="M 0 0L 160 0L 160 40L 0 40Z" stroke="none" fill="none"></path><g id="SvgjsG1176"><text id="SvgjsText1177" font-family="微软雅黑" text-anchor="middle" font-size="13px" width="61" fill="#323232" font-weight="400" align="middle" anchor="middle" family="微软雅黑" size="13px" weight="400" font-style="" y="10.05" transform="rotate(0)"><tspan id="SvgjsTspan1178" dy="16" x="80"><tspan id="SvgjsTspan1179" style="text-decoration:;">stagesepx</tspan></tspan></text></g></g><g id="SvgjsG1180"><path id="SvgjsPath1181" d="M301 155L423 155L423 244.5L545 244.5" stroke="#323232" stroke-width="2" fill="none" marker-end="url(#SvgjsMarker1182)"></path></g><g id="SvgjsG1184" transform="translate(25,34.5)"><path id="SvgjsPath1185" d="M 0 0L 160 0L 160 40L 0 40Z" stroke="none" fill="none"></path><g id="SvgjsG1186"><text id="SvgjsText1187" font-family="微软雅黑" text-anchor="middle" font-size="13px" width="30" fill="#323232" font-weight="400" align="middle" anchor="middle" family="微软雅黑" size="13px" weight="400" font-style="" y="10.05" transform="rotate(0)"><tspan id="SvgjsTspan1188" dy="16" x="80"><tspan id="SvgjsTspan1189" style="text-decoration:;">input</tspan></tspan></text></g></g><g id="SvgjsG1190" transform="translate(25,540)"><path id="SvgjsPath1191" d="M 0 0L 160 0L 160 40L 0 40Z" stroke="none" fill="none"></path><g id="SvgjsG1192"><text id="SvgjsText1193" font-family="微软雅黑" text-anchor="middle" font-size="13px" width="39" fill="#323232" font-weight="400" align="middle" anchor="middle" family="微软雅黑" size="13px" weight="400" font-style="" y="10.05" transform="rotate(0)"><tspan id="SvgjsTspan1194" dy="16" x="80"><tspan id="SvgjsTspan1195" style="text-decoration:;">output</tspan></tspan></text></g></g></svg>